# xmcd
#
# Track frame offsets:
#	150
#	14294
#	26784
#	40102
#	55714
#	71476
#	92113
#	111478
#	120729
#	134856
#	147794
#	158098
#	182133
#
# Disc length: 2645 seconds
#
# Revision: 1
# Processed by: cddbd v1.5.2PL0 Copyright (c) Steve Scherf et al.
# Submitted via: audiograbber 1.83.01
#
DISCID=b90a530d
DTITLE=Matt Leavy - Paint The Town
DYEAR=1900
DGENRE=
TTITLE0=The Preacher
TTITLE1=I'll Die Young
TTITLE2=The Chair
TTITLE3=My Ex-Wife
TTITLE4=Sometimes She Forgets
TTITLE5=Me And Bobby Mcgee
TTITLE6=Sometime When We Touch
TTITLE7=Paint The Town Tonight
TTITLE8=Four Strong Winds
TTITLE9=Soon As I Can
TTITLE10=Alone With You
TTITLE11=Jim Reeves Medley
TTITLE12=Sweet County Meath
EXTD=
EXTT0=
EXTT1=
EXTT2=
EXTT3=
EXTT4=
EXTT5=
EXTT6=
EXTT7=
EXTT8=
EXTT9=
EXTT10=
EXTT11=
EXTT12=
PLAYORDER=
